# xmcd CD database file
#
# Track frame offsets:
#	150
#	15377
#	27941
#	41608
#	57365
#	71898
#	85172
#	100582
#	112348
#	126531
#	137923
#	152198
#	170436
#	189547
#	218181
#	240018
#	253517
#	265391
#
# Disc length: 3748 seconds
#
# Revision: 0
# Processed by: cddbd v1.5.2PL0 Copyright (c) Steve Scherf et al.
# Submitted via: CDex 1.51
#
DISCID=010ea212
DTITLE=Sarah Vaughan - JAZZ BASICS
DYEAR=1900
DGENRE=Jazz
TTITLE0=Lover Man
TTITLE1=What A Difference A Day Made
TTITLE2=Ain't Missbehavin'
TTITLE3=Goodnight My Love
TTITLE4=It Might As Well Be Spring
TTITLE5=Mean To Me
TTITLE6=Come Rain Or Come Shine
TTITLE7=Nice Work If You Can Get It
TTITLE8=East Of The Sun
TTITLE9=Perdido
TTITLE10=Deep Purple
TTITLE11=Lullaby Of Birdland
TTITLE12=He's My Guy
TTITLE13=April In Paris
TTITLE14=Embraceable You
TTITLE15=Sometimes I'm Happy
TTITLE16=How High The Moon
TTITLE17=Over The Rainbow
EXTD=
EXTT0=
EXTT1=
EXTT2=
EXTT3=
EXTT4=
EXTT5=
EXTT6=
EXTT7=
EXTT8=
EXTT9=
EXTT10=
EXTT11=
EXTT12=
EXTT13=
EXTT14=
EXTT15=
EXTT16=
EXTT17=
PLAYORDER=
